<mxfile host="app.diagrams.net" modified="2024-05-05T21:58:35.873Z" agent="Mozilla/5.0 (Macintosh; Intel Mac OS X 10_15_7) AppleWebKit/537.36 (KHTML, like Gecko) Chrome/121.0.0.0 Safari/537.36" version="24.3.1" etag="8vg30wBllXh8S7WAyJ4C" type="github">
  <diagram name="Page-1" id="I1EEIwbckX-oimC0LIbU">
    <mxGraphModel>
      <root>
        <mxCell id="0" />
        <mxCell id="1" parent="0" />
      </root>
    </mxGraphModel>
  </diagram>
</mxfile>
